HIERARCHY
ROOT Hips
{
	OFFSET 0.000000 0.000000 0.000000
	CHANNELS 6 Xposition Yposition Zposition Xrotation Yrotation Zrotation
	JOINT LeftUpLeg_virtual
	{
		OFFSET 0.000000 0.000000 0.000000
		CHANNELS 3 Xrotation Yrotation Zrotation
		JOINT LeftUpLeg
		{
			OFFSET 13.026900 -6.336304 -1.092800
			CHANNELS 3 Xrotation Yrotation Zrotation
			JOINT LeftLeg
			{
				OFFSET 0.524474 -46.096886 9.782700
				CHANNELS 3 Xrotation Yrotation Zrotation
				JOINT LeftFoot
				{
					OFFSET -0.524474 -53.427422 -12.948200
					CHANNELS 3 Xrotation Yrotation Zrotation
					JOINT LeftToeBase
					{
						OFFSET 0.192200 -14.009700 16.364100
						CHANNELS 3 Xrotation Yrotation Zrotation
						JOINT LeftToe_End
						{
							OFFSET -1.784700 -0.561700 9.474800
							CHANNELS 3 Xrotation Yrotation Zrotation
							End Site
							{
								OFFSET 0 0 0
							}
						}
					}
				}
			}
		}
	}
	JOINT RightUpLeg_virtual
	{
		OFFSET 0.000000 0.000000 0.000000
		CHANNELS 3 Xrotation Yrotation Zrotation
		JOINT RightUpLeg
		{
			OFFSET -12.883000 -6.336304 -1.092800
			CHANNELS 3 Xrotation Yrotation Zrotation
			JOINT RightLeg
			{
				OFFSET -0.524587 -46.096825 9.782800
				CHANNELS 3 Xrotation Yrotation Zrotation
				JOINT RightFoot
				{
					OFFSET 0.524587 -53.427383 -12.948300
					CHANNELS 3 Xrotation Yrotation Zrotation
					JOINT RightToeBase
					{
						OFFSET -0.192200 -14.009700 16.364100
						CHANNELS 3 Xrotation Yrotation Zrotation
						JOINT RightToe_End
						{
							OFFSET 1.784700 -0.561700 9.474800
							CHANNELS 3 Xrotation Yrotation Zrotation
							End Site
							{
								OFFSET 0 0 0
							}
						}
					}
				}
			}
		}
	}
	JOINT Spine_virtual
	{
		OFFSET 0.000000 0.000000 0.000000
		CHANNELS 3 Xrotation Yrotation Zrotation
		JOINT Spine
		{
			OFFSET 0.072000 7.257294 -0.789700
			CHANNELS 3 Xrotation Yrotation Zrotation
			JOINT Spine1
			{
				OFFSET 0.000000 12.508769 -0.658067
				CHANNELS 3 Xrotation Yrotation Zrotation
				JOINT Spine1_split
				{
					OFFSET 0.000000 12.508769 -0.658067
					CHANNELS 3 Xrotation Yrotation Zrotation
					JOINT Spine2
					{
						OFFSET 0.000000 12.508769 -0.658067
						CHANNELS 3 Xrotation Yrotation Zrotation
						JOINT Neck_virtual
						{
							OFFSET 0.000000 0.000000 0.000000
							CHANNELS 3 Xrotation Yrotation Zrotation
							JOINT Neck
							{
								OFFSET 0.000000 14.033295 7.520400
								CHANNELS 3 Xrotation Yrotation Zrotation
								JOINT Head
								{
									OFFSET 0.000000 8.198502 5.703100
									CHANNELS 3 Xrotation Yrotation Zrotation
									JOINT HeadTop_End
									{
										OFFSET 0.000000 17.760803 13.332701
										CHANNELS 3 Xrotation Yrotation Zrotation
										End Site
										{
											OFFSET 0 0 0
										}
									}
								}
							}
						}
						JOINT LeftShoulder_virtual
						{
							OFFSET 0.000000 0.000000 0.000000
							CHANNELS 3 Xrotation Yrotation Zrotation
							JOINT LeftShoulder
							{
								OFFSET 6.292450 5.785301 -0.669000
								CHANNELS 3 Xrotation Yrotation Zrotation
								JOINT LeftShoulder_split
								{
									OFFSET 6.292450 5.785301 -0.669000
									CHANNELS 3 Xrotation Yrotation Zrotation
									JOINT LeftArm
									{
										OFFSET 13.907140 -6.093903 1.965100
										CHANNELS 3 Xrotation Yrotation Zrotation
										JOINT LeftForeArm
										{
											OFFSET 34.140198 0.000000 0.000000
											CHANNELS 3 Xrotation Yrotation Zrotation
											JOINT LeftHand
											{
												OFFSET 40.960209 0.000000 0.000000
												CHANNELS 3 Xrotation Yrotation Zrotation
												End Site
												{
													OFFSET 0 0 0
												}
											}
										}
									}
								}
							}
						}
						JOINT RightShoulder_virtual
						{
							OFFSET 0.000000 0.000000 0.000000
							CHANNELS 3 Xrotation Yrotation Zrotation
							JOINT RightShoulder
							{
								OFFSET -6.292450 5.785301 -0.669000
								CHANNELS 3 Xrotation Yrotation Zrotation
								JOINT RightShoulder_split
								{
									OFFSET -6.292450 5.785301 -0.669000
									CHANNELS 3 Xrotation Yrotation Zrotation
									JOINT RightArm
									{
										OFFSET -13.907140 -6.093903 1.965100
										CHANNELS 3 Xrotation Yrotation Zrotation
										JOINT RightForeArm
										{
											OFFSET -34.140198 0.000000 0.000000
											CHANNELS 3 Xrotation Yrotation Zrotation
											JOINT RightHand
											{
												OFFSET -40.960209 0.000000 0.000000
												CHANNELS 3 Xrotation Yrotation Zrotation
												End Site
												{
													OFFSET 0 0 0
												}
											}
										}
									}
								}
							}
						}
					}
				}
			}
		}
	}
}
MOTION
Frames: 5
Frame Time: 0.03333333
-38.905144 50.867874 332.709229 0.000000 0.000000 0.000000 -169.995117 13.518969 -177.308296 -99.680348 -7.705118 39.841853 106.383366 -6.761559 -5.372290 9.073701 -8.450380 8.233941 -0.468318 0.000003 -0.000004 0.000000 0.000000 0.000000 -169.995117 13.518969 -177.308296 -103.603615 18.591380 -18.753767 110.138043 0.107451 4.452280 6.662225 1.505845 -9.212632 -0.706158 -0.000008 0.000003 0.000000 0.000000 0.000000 -169.995117 13.518969 -177.308296 16.799030 -4.006370 -8.874010 3.969195 -0.741152 -2.119501 0.000000 0.000000 0.000000 0.000000 0.000000 0.000000 3.979509 -0.739453 -2.101520 0.912700 0.186791 0.154901 -20.090706 -2.727744 8.655180 0.000000 0.000000 0.000000 3.979509 -0.739453 -2.101520 1.384114 -5.715087 -11.757634 0.000000 0.000000 0.000000 -18.360587 -40.146226 -47.046131 -0.000019 -56.855444 -0.000032 0.000000 0.000000 0.000000 3.979509 -0.739453 -2.101520 -4.126462 21.353060 -2.025800 0.000000 0.000000 0.000000 -21.913707 29.410777 24.489278 179.999950 72.353574 -179.999937 0.000000 0.000000 0.000000 
-38.886810 50.870651 332.708344 0.000000 0.000000 0.000000 -170.046042 13.531185 -177.314771 -99.717101 -7.755245 39.789107 106.382095 -6.767246 -5.366578 9.071802 -8.407977 8.218422 -0.465202 -0.000006 0.000002 0.000000 0.000000 0.000000 -170.046042 13.531185 -177.314771 -103.645805 18.548808 -18.763459 110.137360 0.119224 4.466983 6.650454 1.503054 -9.236810 -0.707375 -0.000013 -0.000003 0.000000 0.000000 0.000000 -170.046042 13.531185 -177.314771 16.777571 -3.979933 -8.845333 3.953005 -0.732007 -2.129828 0.000000 0.000000 0.000000 0.000000 0.000000 0.000000 3.963048 -0.728869 -2.113283 0.909227 0.164207 0.204960 -20.937812 -2.917522 8.648819 0.000000 0.000000 0.000000 3.963048 -0.728869 -2.113283 1.385784 -5.726414 -11.728835 0.000000 0.000000 0.000000 -18.401727 -40.104275 -47.092768 0.000036 -56.770763 0.000022 0.000000 0.000000 0.000000 3.963048 -0.728869 -2.113283 -4.382717 20.715689 -2.732458 0.000000 0.000000 0.000000 -23.680782 29.747878 24.695015 179.999978 71.448150 -179.999978 0.000000 0.000000 0.000000 
-38.873474 50.876587 332.707031 0.000000 0.000000 0.000000 -170.089810 13.549413 -177.333363 -99.744333 -7.820333 39.749280 106.381672 -6.771872 -5.358936 9.071736 -8.369015 8.147640 -0.461289 0.000000 0.000000 0.000000 0.000000 0.000000 -170.089810 13.549413 -177.333363 -103.674130 18.489927 -18.781839 110.118215 0.134212 4.483740 6.640454 1.500219 -9.269725 -0.708488 -0.000005 0.000001 0.000000 0.000000 0.000000 -170.089810 13.549413 -177.333363 16.756244 -3.969241 -8.812216 3.936250 -0.726279 -2.133478 0.000000 0.000000 0.000000 0.000000 0.000000 0.000000 3.946132 -0.719992 -2.117365 0.903844 0.149313 0.259419 -21.909464 -3.057868 8.701506 0.000000 0.000000 0.000000 3.946132 -0.719992 -2.117365 1.383557 -5.752320 -11.707941 0.000000 0.000000 0.000000 -18.417689 -40.033822 -47.130733 0.000022 -56.739850 0.000009 0.000000 0.000000 0.000000 3.946132 -0.719992 -2.117365 -4.607654 20.141302 -3.226563 0.000000 0.000000 0.000000 -25.254303 30.109321 24.691904 179.999923 70.810613 -179.999923 0.000000 0.000000 0.000000 
-38.860146 50.877693 332.703522 0.000000 0.000000 0.000000 -170.125764 13.564874 -177.347146 -99.764099 -7.872514 39.706987 106.382908 -6.773444 -5.349977 9.051963 -8.328086 8.119347 -0.461225 -0.000001 0.000002 0.000000 0.000000 0.000000 -170.125764 13.564874 -177.347146 -103.699060 18.453192 -18.825905 110.117649 0.169988 4.506926 6.625675 1.500152 -9.264014 -0.709439 -0.000005 -0.000003 0.000000 0.000000 0.000000 -170.125764 13.564874 -177.347146 16.706235 -3.963848 -8.759278 3.916778 -0.723958 -2.135149 0.000000 0.000000 0.000000 0.000000 0.000000 0.000000 3.926631 -0.716449 -2.119209 0.892073 0.138532 0.310172 -22.891043 -3.147288 8.763345 0.000000 0.000000 0.000000 3.926631 -0.716449 -2.119209 1.380650 -5.788625 -11.682017 0.000000 0.000000 0.000000 -18.393612 -39.973405 -47.156418 0.000050 -56.711375 0.000022 0.000000 0.000000 0.000000 3.926631 -0.716449 -2.119209 -4.867072 19.612531 -3.735024 0.000000 0.000000 0.000000 -26.682773 30.496221 24.731864 179.999964 70.312488 -179.999964 0.000000 0.000000 0.000000 
-38.861599 50.884369 332.706940 0.000000 0.000000 0.000000 -170.238736 13.597696 -177.392908 -99.874113 -7.973963 39.665589 106.385176 -6.774538 -5.342937 9.056080 -8.285274 8.098468 -0.475821 -0.000009 0.000000 0.000000 0.000000 0.000000 -170.238736 13.597696 -177.392908 -103.784315 18.352508 -18.835978 110.078894 0.194412 4.532699 6.619385 1.495183 -9.305953 -0.710292 0.000003 0.000004 0.000000 0.000000 0.000000 -170.238736 13.597696 -177.392908 16.637581 -3.960515 -8.696015 3.896364 -0.724744 -2.135321 0.000000 0.000000 0.000000 0.000000 0.000000 0.000000 3.906195 -0.716056 -2.119341 0.874063 0.130486 0.353805 -23.736871 -3.216740 8.766211 0.000000 0.000000 0.000000 3.906195 -0.716056 -2.119341 1.383005 -5.816934 -11.640312 0.000000 0.000000 0.000000 -18.324814 -39.978559 -47.169160 0.000036 -56.633186 0.000022 0.000000 0.000000 0.000000 3.906195 -0.716056 -2.119341 -5.111822 19.128722 -4.298377 0.000000 0.000000 0.000000 -28.006660 30.826109 24.873461 179.999964 69.945413 -179.999950 0.000000 0.000000 0.000000 
